<svg version="1.1" id="Layer_1" xmlns="http://www.w3.org/2000/svg" xmlns:xlink="http://www.w3.org/1999/xlink" x="0" y="0" viewBox="0 0 252.14 111.01" xml:space="preserve"><style>.st0{clip-path:url(#SVGID_2_)}.st1{fill:none}.st2{fill:#e34a5e}.st3{fill:#222}.st5{fill:#fff}.st6{fill:#49c3cc}</style><defs><path id="SVGID_1_" d="M1.42 84.68h249.3v24.91H1.42z"/></defs><clipPath id="SVGID_2_"><use xlink:href="#SVGID_1_" overflow="visible"/></clipPath><g class="st0"><path class="st1" d="M204.13 54.63h57v58.5h-57z"/><path class="st2" d="M204.13 54.63h57v58.5h-57z"/></g><g class="st0"><path class="st1" d="M147.14 54.63h57v58.5h-57z"/><path class="st2" d="M147.14 54.63h57v58.5h-57z"/></g><g class="st0"><path class="st1" d="M90.14 54.63h57v58.5h-57z"/><path class="st2" d="M90.14 54.63h57v58.5h-57z"/></g><g class="st0"><path class="st1" d="M33.14 54.63h57v58.5h-57z"/><path class="st2" d="M33.14 54.63h57v58.5h-57z"/></g><g class="st0"><path class="st1" d="M-23.86 54.63h57v58.5h-57z"/><path class="st2" d="M-23.86 54.63h57v58.5h-57z"/></g><path class="st3" d="M252.14 111.01H0V83.26h252.14v27.75zM2.85 108.16H249.3V86.1H2.85v22.06z"/><path fill="#244d60" d="M1.42 1.42h249.3v83.26H1.42z"/><path class="st3" d="M252.14 86.1H0V0h252.14v86.1zM2.85 83.26H249.3V2.85H2.85v80.41z"/><path class="st5" d="M38.28 99.15c.11.1.13.26.06.47-.23.8-1.07 1.35-2.54 1.63-1.37.25-2.61.18-3.71-.2-1.54-.54-2.18-2.1-1.91-4.68.13-.86.55-1.53 1.25-2.01.81-.56 1.84-.84 3.09-.85 1.46-.04 2.5.23 3.12.78.33.33.5.69.51 1.07l.02.11v.11c-.01.08-.05.15-.11.2-.18.15-.43.2-.74.15-.32-.05-.48-.16-.47-.35-.01-.43-.14-.74-.4-.95-.32-.25-.82-.38-1.48-.39-.56.01-1.01.05-1.37.13-.38.09-.71.24-1.01.43-.58.4-.9.95-.95 1.65-.06 1.68-.03 2.65.1 2.91.17.38.48.67.93.86.36.16.87.25 1.53.29 1.39.01 2.23-.32 2.51-.98l.03-.11.02-.11a.4.4 0 01.11-.19c.16-.14.4-.21.71-.2.31 0 .55.07.7.23zM41.73 101.04v-.21l.03-.2c.06-.42.1-.83.1-1.26l.02-1.37c.02-1.65.12-2.66.29-3.03.08-.83.71-1.32 1.89-1.47s2.38-.15 3.6 0c1.22.15 1.82.84 1.81 2.06.06.35.1 1.35.1 3.01v1.34c0 .23.03.56.08.99 0 .16-.1.29-.3.39-.21.1-.46.12-.72.06-.34-.06-.5-.2-.47-.4.04-.63.06-1.1.06-1.41-.17-.06-1.82-.06-4.94-.02-.02 0-.03.01-.03.02v.25l.03.26.05.45.05.44c.02.18-.11.32-.4.42-.29.1-.58.1-.87-.01-.22-.05-.35-.16-.38-.31zm1.51-5.42c-.02.31-.03 1.33-.03 3.05.28-.08 1.9-.09 4.87-.05.04.02.09.04.13.04 0-1.72.01-2.74.03-3.05s-.04-.63-.19-.96c-.15-.33-.76-.47-1.83-.42h-.9c-.95-.07-1.53.07-1.74.41-.2.33-.31.66-.34.98zM54.5 99.16c.02.23.04.5.06.8l.03.36.03.36.02.15.02.14c-.01.11-.07.2-.18.27-.25.17-.56.21-.95.12-.39-.08-.56-.23-.53-.45.11-.7.16-1.75.16-3.16 0-1.62-.03-2.7-.1-3.22l-.02-.15-.03-.16a.97.97 0 01.01-.3c.04-.24.27-.38.68-.41h1.06c.3.01.76.02 1.38.02 1.18.02 2.08.11 2.7.25 1.25.33 1.8.94 1.64 1.84-.06 1.58-.4 2.54-1.01 2.87-.12.06-.26.13-.43.19l-.47.17c.3.16.54.39.72.67.07.19.16.34.24.45l.05.11.06.11c.06.09.14.16.24.2.09.05.2.08.35.09h.19l.18-.01c.36-.02.65.03.87.16.24.17.26.35.06.54-.19.16-.5.23-.93.2-.69-.04-1.22-.16-1.61-.36-.2-.11-.38-.24-.51-.41l-.15-.25-.13-.24-.13-.26a.942.942 0 00-.18-.25c-.15-.18-.38-.29-.69-.33-.26-.04-.5-.05-.72-.05-1.03.04-1.65.04-1.87-.02a.358.358 0 00-.11-.04zm-.02-.77c.03-.01.07-.02.11-.03.19-.05.79-.06 1.8-.02l.11-.01.08-.01c.4-.02.69-.05.87-.07.47-.08.85-.2 1.14-.36.42-.24.61-1.1.56-2.59 0-.32-.14-.54-.42-.69-.32-.16-.75-.25-1.29-.26-.58-.05-1.33-.05-2.25 0l-.29.01-.32.01c-.06.54-.1 1.88-.1 4.02zM73.07 93.78c.12.15.08.29-.1.42s-.42.19-.72.19l-.74-.04-.74-.02-.47-.02h-.45c0 .04-.01.06-.03.09l-.03.34-.03.34c-.06 1.96-.05 3.54.03 4.74l.03.38.03.38.02.12.02.14c.01.1-.01.18-.06.25-.17.23-.48.32-.93.26-.45-.05-.67-.21-.66-.46.12-.77.18-1.69.18-2.76l-.02-.76-.03-2.41-.03-.33-.03-.32c-.02-.01-.03-.03-.03-.04-.77-.02-1.42 0-1.93.04l-.21.02-.19.03c-.16.02-.29.02-.4.01-.35-.02-.58-.12-.69-.29-.13-.18-.07-.35.18-.49s.54-.18.88-.12c.44.07 1.03.09 1.77.07 1.06 0 1.85-.01 2.38-.02.65 0 1.31-.02 1.98-.05.53.01.88.1 1.02.31zM84.15 94.59c.58.5.88 1.16.92 1.99-.03 1.87-.26 3.03-.69 3.49-.61.66-1.52 1.07-2.73 1.23-.63.09-1.35.1-2.14.02-1.34-.15-2.3-.59-2.89-1.32-.77-.9-.89-2.43-.35-4.61.43-.79 1.18-1.34 2.27-1.63.72-.19 1.46-.27 2.24-.25 1.48.04 2.61.41 3.37 1.08zm-.41 1.99c-.03-.67-.28-1.19-.76-1.56-.58-.5-1.4-.74-2.46-.71-.76.02-1.38.12-1.85.3-.67.3-1.09.73-1.29 1.28-.32 2.04-.08 3.35.72 3.95.56.4 1.35.61 2.38.63.91-.02 1.61-.17 2.11-.44.46-.25.78-.57.95-.95.06-.11.12-.29.16-.53.02-1.17.03-1.8.03-1.91v-.06zM96.7 94.59c.58.5.88 1.16.92 1.99-.03 1.87-.26 3.03-.69 3.49-.61.66-1.52 1.07-2.73 1.23-.63.09-1.35.1-2.14.02-1.34-.15-2.3-.59-2.89-1.32-.77-.9-.89-2.43-.35-4.61.43-.79 1.18-1.34 2.27-1.63.72-.19 1.46-.27 2.24-.25 1.49.04 2.62.41 3.37 1.08zm-.4 1.99c-.03-.67-.28-1.19-.76-1.56-.58-.5-1.4-.74-2.46-.71-.76.02-1.38.12-1.85.3-.67.3-1.09.73-1.29 1.28-.32 2.04-.08 3.35.72 3.95.56.4 1.35.61 2.38.63.91-.02 1.61-.17 2.11-.44.46-.25.78-.57.95-.95.06-.11.12-.29.16-.53.02-1.17.03-1.8.03-1.91v-.06zM109.59 94.14l-.03.2-.03.18c-.06.57-.1 1.15-.1 1.72 0 1.03.04 2.49.13 4.37l.02.18.02.18c-.01.13-.07.24-.19.32-.32.17-.65.2-1 .09-.27-.06-.42-.2-.47-.4v-.16l-.03-.11a.665.665 0 00-.08-.18l-.14-.18c-3.09-2.97-4.75-4.54-5-4.7-.02.37-.03.91-.03 1.63 0 .56.03 1.64.1 3.25l.03.17.05.19c.01.15-.04.27-.15.36-.22.18-.55.24-.96.18-.41-.08-.59-.24-.55-.47.11-1.65.16-3.07.16-4.25 0-.94-.04-1.78-.13-2.52-.04-.17-.03-.29.03-.36.15-.21.43-.3.85-.27.42.03.66.16.72.38v.15c.01.01.02.02.02.04l-.02.08c.04.12.13.25.27.39.09.09.21.21.39.35l4.58 4.22.03-1.47c.02-.25.03-.63.03-1.13 0-.37-.02-.93-.06-1.67l-.06-.44-.05-.45c0-.24.21-.39.63-.45.4-.06.71.01.93.22.07.07.1.2.09.36zM120.21 99.58c.11.45-.11.85-.66 1.19-.56.35-1.34.55-2.35.6-.95.05-1.81-.06-2.56-.31-.91-.3-1.35-.75-1.32-1.33.04-.26.24-.4.59-.42.38-.03.63.08.76.34.06.3.32.52.76.65.42.13.94.18 1.58.17.5-.01.92-.07 1.25-.17.43-.13.65-.31.66-.55a.922.922 0 00-.16-.33c-.06-.08-.18-.15-.34-.21-.12-.04-.27-.08-.45-.13l-.63-.12-.63-.11a8.08 8.08 0 01-1.54-.41c-.48-.19-.92-.5-1.33-.94-.41-.44-.6-1.15-.55-2.11 0-.53.28-.96.85-1.31.55-.31 1.28-.5 2.2-.56.74-.05 1.42.01 2.03.18.66.17 1.12.44 1.37.8.34.48.28.91-.19 1.27-.24.19-.52.25-.85.18-.45-.11-.55-.28-.31-.5.27-.29.23-.57-.13-.82-.28-.19-.75-.3-1.42-.32-.59 0-1.06.06-1.42.18-.27.09-.48.22-.63.38-.08.11-.13.2-.16.29l-.02.1-.02.08v.1c-.15 1.18.24 1.94 1.16 2.26l.93.33.8.14c.64.11 1.15.23 1.51.37.7.23 1.1.59 1.22 1.04zM131.79 101.04v-.21l.03-.2c.06-.42.1-.83.1-1.26l.02-1.37c.02-1.65.12-2.66.29-3.03.08-.83.71-1.32 1.89-1.47s2.38-.15 3.6 0c1.22.15 1.82.84 1.81 2.06.06.35.1 1.35.1 3.01v1.34c0 .23.03.56.08.99 0 .16-.1.29-.3.39-.21.1-.46.12-.72.06-.34-.06-.5-.2-.47-.4.04-.63.06-1.1.06-1.41-.17-.06-1.82-.06-4.94-.02-.02 0-.03.01-.03.02v.25l.03.26.05.45.05.44c.02.18-.11.32-.4.42-.29.1-.58.1-.87-.01-.22-.05-.34-.16-.38-.31zm1.52-5.42c-.02.31-.03 1.33-.03 3.05.28-.08 1.9-.09 4.87-.05.04.02.09.04.13.04 0-1.72.01-2.74.03-3.05s-.04-.63-.19-.96c-.15-.33-.76-.47-1.83-.42h-.9c-.95-.07-1.53.07-1.74.41-.21.33-.32.66-.34.98zM151.59 94.14l-.03.2-.03.18c-.06.57-.1 1.15-.1 1.72 0 1.03.04 2.49.13 4.37l.02.18.02.18c-.01.13-.07.24-.19.32-.32.17-.65.2-1 .09-.27-.06-.42-.2-.47-.4v-.16l-.03-.11a.665.665 0 00-.08-.18l-.14-.18c-3.09-2.97-4.75-4.54-5-4.7-.02.37-.03.91-.03 1.63 0 .56.03 1.64.1 3.25l.03.17.05.19c.01.15-.04.27-.15.36-.22.18-.55.24-.96.18-.41-.08-.59-.24-.55-.47.11-1.65.16-3.07.16-4.25 0-.94-.04-1.78-.13-2.52-.04-.17-.03-.29.03-.36.15-.21.43-.3.85-.27.42.03.66.16.72.38v.15c.01.01.02.02.02.04l-.02.08c.04.12.13.25.27.39.09.09.21.21.39.35l4.58 4.22.03-1.47c.02-.25.03-.63.03-1.13 0-.37-.02-.93-.06-1.67l-.06-.44-.05-.45c0-.24.21-.39.63-.45.4-.06.71.01.93.22.06.07.1.2.09.36zM163.19 96.39c.02 1.66-.03 2.67-.14 3.01-.16.5-.48.91-.96 1.21-.7.43-1.93.69-3.7.76l-1.08.02-1.09.02c-.65 0-.96-.15-.92-.45.18-1.13.21-3.11.1-5.92 0-.35-.03-.7-.1-1.04-.04-.3.19-.47.69-.51.18-.01.43 0 .76.01l.76.01.95.03c.38.01.7.03.96.05 1.35.11 2.33.41 2.93.91.52.43.8 1.06.84 1.89zm-1.35-.28c-.06-.38-.19-.69-.39-.93-.26-.33-.65-.56-1.19-.69-.51-.12-1.18-.16-2.01-.14h-.69l-.69.02c-.06.66-.1 1.33-.1 2 0 2.21.03 3.59.1 4.14l.98.03c.39.01.72.01 1 .01.74-.02 1.31-.09 1.7-.2.44-.13.77-.36.98-.68.14-.21.24-.5.31-.87.04-1.45.04-2.34 0-2.69zM183.29 99.15c.11.1.13.26.06.47-.23.8-1.07 1.35-2.54 1.63-1.37.25-2.61.18-3.71-.2-1.54-.54-2.18-2.1-1.91-4.68.13-.86.55-1.53 1.25-2.01.81-.56 1.84-.84 3.09-.85 1.46-.04 2.5.23 3.12.78.33.33.5.69.51 1.07l.02.11v.11c-.01.08-.05.15-.11.2-.18.15-.43.2-.74.15-.32-.05-.48-.16-.47-.35-.01-.43-.14-.74-.4-.95-.32-.25-.82-.38-1.48-.39-.56.01-1.01.05-1.37.13-.38.09-.71.24-1.01.43-.58.4-.9.95-.95 1.65-.06 1.68-.03 2.65.1 2.91.17.38.48.67.93.86.36.16.87.25 1.53.29 1.39.01 2.23-.32 2.51-.98l.03-.11.02-.11a.4.4 0 01.11-.19c.16-.14.4-.21.71-.2.31 0 .55.07.7.23zM194.98 94.59c.58.5.88 1.16.92 1.99-.03 1.87-.26 3.03-.69 3.49-.61.66-1.52 1.07-2.73 1.23-.63.09-1.35.1-2.14.02-1.34-.15-2.3-.59-2.89-1.32-.77-.9-.89-2.43-.35-4.61.43-.79 1.18-1.34 2.27-1.63.72-.19 1.46-.27 2.24-.25 1.49.04 2.62.41 3.37 1.08zm-.4 1.99c-.03-.67-.28-1.19-.76-1.56-.58-.5-1.4-.74-2.46-.71-.76.02-1.38.12-1.85.3-.67.3-1.09.73-1.29 1.28-.32 2.04-.08 3.35.72 3.95.56.4 1.35.61 2.38.63.91-.02 1.61-.17 2.11-.44.46-.25.78-.57.95-.95.06-.11.12-.29.16-.53.02-1.17.03-1.8.03-1.91v-.06zM207.26 96.39c.02 1.66-.03 2.67-.14 3.01-.16.5-.48.91-.96 1.21-.7.43-1.93.69-3.7.76l-1.08.02-1.09.02c-.65 0-.96-.15-.92-.45.18-1.13.21-3.11.1-5.92 0-.35-.03-.7-.1-1.04-.04-.3.19-.47.69-.51.18-.01.43 0 .76.01l.76.01.95.03c.38.01.7.03.96.05 1.35.11 2.33.41 2.93.91.51.43.8 1.06.84 1.89zm-1.35-.28c-.06-.38-.19-.69-.39-.93-.26-.33-.65-.56-1.19-.69-.51-.12-1.18-.16-2.01-.14h-.69l-.69.02c-.06.66-.1 1.33-.1 2 0 2.21.03 3.59.1 4.14l.98.03c.39.01.72.01 1 .01.74-.02 1.31-.09 1.7-.2.44-.13.77-.36.98-.68.14-.21.24-.5.31-.87.03-1.45.03-2.34 0-2.69zM218.32 100.6c.21.09.31.21.29.35 0 .14-.09.25-.26.33-.17.09-.45.13-.82.11-.48-.02-1.16-.05-2.04-.07h-1.98l-.98.04-.96.05c-.57.02-.83-.13-.79-.45l.1-1.19c.04-.8.06-1.39.06-1.77v-2.53l-.03-.82c-.04-.22-.06-.39-.06-.53l-.03-.11-.03-.11c-.01-.1.01-.18.06-.24.13-.13.35-.2.66-.21l.42.01.4.02c1.45.07 2.96.08 4.55.02l.22-.01.24-.02c.2-.02.37-.02.5-.02.36.02.61.11.74.28.1.16.05.31-.14.44s-.44.19-.74.18c-.85-.06-1.88-.09-3.1-.09-.99 0-1.73.01-2.24.04-.06.38-.1 1.53-.1 3.44v.15c2.42-.02 3.69-.03 3.79-.02.48.04.72.19.72.45s-.27.42-.8.47c-.11 0-1.2-.02-3.26-.07l-.42.04c0 .32.01.56.03.72 0 .23.02.59.06 1.1.94.03 2.01.04 3.2.02.46 0 1.13-.02 2.01-.07.28-.05.53-.01.73.07z"/><path class="st6" d="M114.13 39.57c.5-.5.82-.98.94-1.43.13-.45.19-.92.19-1.42 0-1.55.02-3.09.08-4.61.05-1.52.08-3.06.08-4.61 0-.65-.05-1.27-.15-1.88-.1-.6-.18-1.22-.22-1.87-.05-.5-.09-.99-.11-1.46-.03-.47-.01-.96.04-1.46.1-.85.41-1.5.92-1.95.52-.45 1.15-.72 1.89-.82 1.13-.1 1.95.33 2.44 1.27.1.25.2.53.3.82.1.3.17.58.23.82.1.5.15 1 .15 1.5v1.5c.05 1.45.05 2.88 0 4.27-.05 1.4.05 2.8.3 4.2v.97c-.25 2.9-.34 5.79-.26 8.66.08 2.88.06 5.74-.04 8.59-.05 2-.06 3.97-.04 5.92.02 1.95-.01 3.9-.11 5.85a54.69 54.69 0 00-.31 5.7c0 1.6-.76 2.7-2.29 3.3-1.28.4-2.27.02-2.96-1.13-.5-.95-.73-1.98-.67-3.07.05-.55.08-1.06.08-1.54v-1.46c0-.55-.01-1.09-.04-1.61-.03-.53.01-1.06.11-1.61.1-1.2.17-2.41.22-3.64.05-1.22.02-2.44-.08-3.64a4.1 4.1 0 01-.08-1.35c.05-.45.08-.9.08-1.35v-3c-.1-.1-.18-.21-.22-.34a.494.494 0 00-.23-.26c-1.06-.8-2.17-1.36-3.33-1.69-1.16-.32-2.4-.26-3.71.19-.96.3-1.56.93-1.82 1.87-.15.4-.23.8-.23 1.2.05 1.8-.01 3.59-.19 5.36-.18 1.78-.21 3.59-.11 5.44.1 1.5.11 3.03.04 4.57-.08 1.55-.14 3.1-.19 4.65-.05 1.2-.59 2.17-1.63 2.93-.69.45-1.39.59-2.11.41-.71-.18-1.27-.61-1.66-1.31-.45-.7-.62-1.53-.53-2.48.05-1.35.08-2.71.08-4.09 0-1.37.05-2.74.15-4.09.1-1.55.16-3.09.19-4.61.02-1.52-.09-3.06-.34-4.61-.1-.55-.12-1.1-.08-1.65l.15-1.65c0-.55.04-1.09.11-1.61s.11-1.06.11-1.61c0-3.75-.01-7.45-.04-11.1-.02-3.65-.04-7.35-.04-11.1v-1.8c.15-1.65.96-2.52 2.44-2.62.74-.1 1.41.06 2 .49.59.43.96 1.01 1.11 1.76.3 1.5.45 3.05.45 4.65.05 1.8.06 3.6.04 5.4-.03 1.8-.04 3.6-.04 5.4 0 .85.1 1.6.3 2.25.25 1.05.91 1.57 1.96 1.57 1.16.1 2.29.15 3.4.15s2.22-.03 3.28-.13zM143.39 44.79c-.1.41-.2.71-.3.91-.45 1.37-1.38 2.05-2.78 2.05-.7.05-1.38.06-2.03.04-.65-.02-1.33-.04-2.02-.04-.25 0-.53-.01-.82-.04-.3-.02-.6-.01-.9.04-1.15.1-1.85.7-2.1 1.8-.1.25-.18.49-.23.71-.05.22-.08.46-.08.71l-.14 8.03v2.25c0 .25-.01.5-.04.75s-.01.5.04.75c.15 1.7 1.05 2.58 2.7 2.62.85.1 1.72.14 2.62.11.9-.02 1.77-.04 2.62-.04.4 0 .78-.01 1.13-.04.35-.02.72-.01 1.13.04l.9.15c.3.05.57.13.82.23 1.35.45 2.03 1.37 2.03 2.77 0 1.35-.73 2.25-2.18 2.7-.4.1-.81.17-1.24.23-.42.05-.84.1-1.24.15-.7.05-1.36.08-1.99.08h-4.61c-.9 0-1.78.12-2.62.37-.3.1-.61.14-.94.11-.33-.03-.66-.04-1.01-.04-1.75 0-2.85-.82-3.3-2.47-.35-1.2-.58-2.43-.68-3.68-.1-1.85-.16-3.69-.19-5.51-.03-1.82.09-3.66.34-5.51.05-.9.05-1.8 0-2.7-.2-2.1-.29-4.15-.26-6.15.02-2 .11-4.02.26-6.07.1-1.25.14-2.5.11-3.75-.03-1.25-.01-2.5.04-3.75 0-1.9.01-3.77.04-5.62.02-1.85.04-3.72.04-5.62.05-1.55.8-2.5 2.25-2.85.6-.15 1.2-.23 1.8-.23 1.75.1 3.52.06 5.32-.11 1.8-.17 3.57-.29 5.32-.34.6 0 1.2-.01 1.8-.04.6-.02 1.17-.01 1.72.04 1.55.1 2.45.92 2.7 2.47.1.6-.03 1.2-.38 1.8-.35.6-.82 1-1.42 1.2-.4.15-.8.25-1.2.3l-1.2.15c-1.3.1-2.59.18-3.86.23l-3.86.15c-.2 0-.38.01-.53.04-.15.03-.3.04-.45.04-1.15.25-1.8.85-1.95 1.79-.1.7-.19 1.4-.26 2.09-.08.7-.09 1.4-.04 2.09.1 1 .15 1.96.15 2.88 0 .92-.08 1.86-.23 2.8-.1.55-.14 1.12-.11 1.72.02.6.09 1.2.19 1.79.1.95.35 1.58.75 1.91.4.32 1.07.51 2.03.56.75.05 1.5.06 2.25.04.75-.02 1.5-.01 2.25.04 1.15 0 1.96.19 2.44.57.48.36.95 1.13 1.4 2.3zM156.89 45.5v21.75c0 .25.01.5.04.75.02.25.01.5-.04.75-.05.55-.2 1.1-.45 1.65-.65 1.2-1.57 1.8-2.78 1.8-.6-.05-1.15-.28-1.65-.67-.5-.4-.82-.95-.98-1.65-.1-.35-.16-.71-.19-1.09-.03-.37-.04-.76-.04-1.16V47.15c0-.7-.03-1.4-.08-2.1l-.15-2.1c0-.25-.01-.5-.04-.75s-.01-.5.04-.75c.25-2.65.35-5.26.3-7.84-.05-2.57-.13-5.19-.23-7.84 0-.7.01-1.41.04-2.14.02-.72.06-1.44.11-2.14.05-1.4.82-2.37 2.32-2.92.9-.35 1.75-.17 2.55.52.4.4.69.85.86 1.35.17.5.29 1.03.34 1.58.05.3.08.6.08.9V45.5h-.05zM173.08 65.3c1.2-.2 1.92-.87 2.18-2.02.1-.6.21-1.21.34-1.84.12-.62.19-1.24.19-1.84.05-1.45.08-2.87.08-4.27v-4.2c0-.45-.03-.8-.08-1.05-.2-1.25-.95-2.02-2.25-2.33-.3-.05-.61-.09-.94-.11a4.71 4.71 0 01-1.01-.19c-1-.4-1.61-1.01-1.84-1.84-.23-.82.01-1.66.71-2.51.65-.75 1.52-1.17 2.62-1.27.45 0 .91.01 1.39.04.48.03.94.01 1.39-.04.55-.05 1.09-.08 1.61-.08s1.06-.05 1.61-.15c.75-.15 1.47-.08 2.18.22 1.65.6 2.35 1.78 2.1 3.52l-.15.6c-.05.2-.13.4-.23.6-.65.95-1.04 1.95-1.16 3-.13 1.05-.16 2.13-.11 3.23.05.95.05 1.9 0 2.85-.05.95-.03 1.93.08 2.92.05 1.15.01 2.28-.11 3.38-.13 1.1-.29 2.2-.49 3.3-.25 1.45-.78 2.66-1.57 3.64-.8.97-1.74 1.7-2.81 2.17s-2.2.71-3.37.71-2.26-.28-3.26-.82c-.6-.3-1.18-.63-1.72-.98-.55-.35-1.05-.8-1.5-1.35-1.2-1.55-2.22-3.15-3.07-4.8-.85-1.65-1.42-3.47-1.72-5.47-.3-2-.54-3.99-.71-5.96-.18-1.97-.24-3.96-.19-5.96.05-1.2.06-2.4.04-3.6-.03-1.2-.01-2.4.04-3.6l.15-5.25c.05-1.75.2-3.5.45-5.25.2-1.85.66-3.59 1.39-5.21.72-1.62 1.84-3.09 3.34-4.39.85-.7 1.85-1.25 3-1.65 1.15-.4 2.34-.59 3.56-.56 1.22.03 2.41.3 3.56.83 1.15.52 2.18 1.36 3.07 2.51 1.15 1.45 2.03 3 2.62 4.65.6 1.65.85 3.43.75 5.32 0 .7-.15 1.43-.45 2.17-.2.55-.56 1-1.09 1.35-.53.35-1.06.5-1.61.45-.55-.05-1.06-.26-1.54-.64-.48-.37-.81-.86-1.01-1.46-.1-.35-.15-.71-.15-1.09s-.03-.76-.08-1.16c-.1-1.75-.6-3.3-1.5-4.65-.85-1.3-1.9-1.95-3.15-1.95s-2.33.65-3.23 1.95c-1.05 1.5-1.68 3.1-1.87 4.8a81.2 81.2 0 00-.34 6.38c-.03 2.1.01 4.23.11 6.37v3.23c.05 1.4.06 2.79.04 4.16-.03 1.38.01 2.74.11 4.09.1 1.45.39 2.88.86 4.27.48 1.4 1.01 2.75 1.61 4.05.3.65.7 1.21 1.2 1.69.48.48 1.13.84 1.93 1.09zM203 39.57c.5-.5.82-.98.94-1.43.13-.45.19-.92.19-1.42 0-1.55.02-3.09.08-4.61.05-1.52.07-3.06.07-4.61 0-.65-.05-1.27-.15-1.88-.1-.6-.18-1.22-.23-1.87-.05-.5-.09-.99-.11-1.46-.03-.47-.01-.96.04-1.46.1-.85.41-1.5.92-1.95s1.15-.72 1.89-.82c1.13-.1 1.95.33 2.44 1.27.1.25.2.53.3.82.1.3.17.58.22.82.1.5.15 1 .15 1.5v1.5c.05 1.45.05 2.88 0 4.27-.05 1.4.05 2.8.3 4.2v.97c-.25 2.9-.34 5.79-.26 8.66.07 2.88.06 5.74-.04 8.59-.05 2-.06 3.97-.04 5.92.02 1.95-.01 3.9-.11 5.85-.1.95-.18 1.9-.22 2.85-.05.95-.08 1.9-.08 2.85 0 1.6-.76 2.7-2.29 3.3-1.28.4-2.27.02-2.96-1.13-.5-.95-.73-1.98-.68-3.07.05-.55.08-1.06.08-1.54v-1.46c0-.55-.01-1.09-.04-1.61-.03-.53.01-1.06.11-1.61.1-1.2.17-2.41.23-3.64.05-1.22.02-2.44-.08-3.64a4.1 4.1 0 01-.08-1.35c.05-.45.08-.9.08-1.35v-3c-.1-.1-.18-.21-.23-.34a.523.523 0 00-.22-.26c-1.06-.8-2.17-1.36-3.33-1.69-1.16-.32-2.4-.26-3.71.19-.96.3-1.56.93-1.82 1.87-.15.4-.23.8-.23 1.2.05 1.8-.01 3.59-.19 5.36-.18 1.78-.21 3.59-.11 5.44.1 1.5.11 3.03.04 4.57-.08 1.55-.14 3.1-.19 4.65-.05 1.2-.59 2.17-1.63 2.93-.69.45-1.39.59-2.11.41-.71-.18-1.27-.61-1.66-1.31-.45-.7-.62-1.53-.53-2.48.05-1.35.08-2.71.08-4.09 0-1.37.05-2.74.15-4.09.1-1.55.16-3.09.19-4.61.02-1.52-.09-3.06-.34-4.61-.1-.55-.12-1.1-.08-1.65l.15-1.65c0-.55.04-1.09.11-1.61.08-.53.11-1.06.11-1.61 0-3.75-.01-7.45-.04-11.1-.02-3.65-.04-7.35-.04-11.1v-1.8c.15-1.65.96-2.52 2.44-2.62.74-.1 1.4.06 2 .49.59.43.96 1.01 1.11 1.76.3 1.5.45 3.05.45 4.65.05 1.8.06 3.6.04 5.4-.03 1.8-.04 3.6-.04 5.4 0 .85.1 1.6.3 2.25.25 1.05.91 1.57 1.97 1.57 1.16.1 2.29.15 3.4.15 1.15.02 2.23-.03 3.29-.13zM228.73 25.62c-.4.4-.66.82-.79 1.27-.13.45-.19.95-.19 1.5-.05 1.15-.08 2.28-.08 3.37V38.06c-.05 2.7-.09 5.37-.11 8.02-.03 2.65-.04 5.32-.04 8.03.05 1.4.12 2.8.23 4.2.1 1.4.2 2.83.3 4.27.1 1.15.15 2.28.15 3.37v3.98c0 .2-.05.4-.15.6-.2.7-.6 1.22-1.2 1.57-.6.35-1.25.4-1.95.15-.55-.2-1.04-.48-1.46-.82-.43-.35-.69-.85-.79-1.5l-.6-6-.23-3.45c-.05-.4-.09-.77-.11-1.12-.03-.35-.01-.72.04-1.13.1-1 .11-2 .04-3-.08-1-.14-2-.19-3-.05-1.6-.06-3.19-.04-4.76.02-1.57.04-3.16.04-4.76l-.15-2.59c-.05-.87-.08-1.74-.08-2.59-.05-.4-.09-.81-.11-1.24-.03-.42.01-.84.11-1.24.2-1.2.31-2.41.34-3.64.02-1.22.04-2.44.04-3.64 0-.55-.05-1.09-.15-1.61-.1-.53-.35-1.01-.75-1.46-1.05-.85-2.22-1.05-3.52-.6-.55.15-1.1.22-1.65.22-.85.1-1.55-.02-2.1-.37s-1.03-.85-1.43-1.5c-.8-1.3-.55-2.4.75-3.3.75-.5 1.52-.75 2.32-.75.9-.1 1.81-.19 2.74-.26.92-.08 1.84-.11 2.74-.11 1.15.05 2.27.11 3.37.19s2.2.16 3.3.26l6.97.9c.3.05.61.11.94.19.33.08.64.19.94.34 1.25.65 1.72 1.7 1.42 3.15-.15.7-.49 1.26-1.01 1.69-.53.43-1.14.64-1.84.64-.5-.05-1-.08-1.5-.08s-1-.05-1.5-.15c-.98-.24-2.01-.09-3.06.46z"/><path class="st5" d="M38.67 68.83c-.5 1.2-1 1.99-1.5 2.36-.5.37-1.35.59-2.55.64h-7.5c-.85 0-1.69.01-2.51.04-.82.02-1.66.06-2.51.11-2.3 0-3.48-1.1-3.52-3.3-.05-1.3-.06-2.62-.04-3.97.02-1.35.04-2.67.04-3.97.05-1.85.09-3.69.11-5.51.02-1.82.04-3.66.04-5.51 0-1.9-.01-3.77-.04-5.62s.09-3.7.34-5.55c.05-.3.08-.6.08-.9v-.9l.15-13.95c0-.4.04-.81.11-1.24.08-.42.16-.84.26-1.24.2-.95.76-1.58 1.69-1.88.92-.3 1.81-.1 2.66.6.8.65 1.2 1.53 1.2 2.62v8.02c0 1.1-.01 2.19-.04 3.26-.03 1.08-.11 2.16-.26 3.26-.1.75-.14 1.53-.11 2.33.02.8.04 1.6.04 2.4 0 .8-.01 1.59-.04 2.36-.03.78-.04 1.56-.04 2.36-.05 1.3-.06 2.62-.04 3.97.02 1.35.01 2.7-.04 4.05 0 1.1.01 2.2.04 3.3.02 1.1-.09 2.23-.34 3.37-.1.45-.14.91-.11 1.39.02.48.09.94.19 1.39.1 1 .37 1.69.82 2.06.45.37 1.15.56 2.1.56.7.05 1.41.05 2.14 0 .72-.05 1.44-.08 2.14-.08.6 0 1.19.01 1.76.04.57.03 1.16.04 1.76.04.95.1 1.72.36 2.33.79.59.44.99 1.2 1.19 2.3zm-3.66-7.05c-.25-.1-.51-.19-.78-.26s-.53-.19-.78-.34c-.84-.4-1.28-1.05-1.33-1.95v-1.5c0-4.6.01-9.19.04-13.76.02-4.57.04-9.16.04-13.76 0-1.1-.01-2.19-.04-3.26-.03-1.07-.04-2.16-.04-3.26 0-.35-.01-.69-.04-1.01-.03-.32.01-.64.11-.94.1-.6.25-1.07.45-1.42.74-1.05 1.65-1.5 2.74-1.35.54.05.97.26 1.29.64.32.37.58.81.78 1.31.2.6.3 1.33.3 2.17.1 1.4.17 2.79.22 4.16.05 1.38.08 2.74.08 4.09.05 3.35.08 6.69.08 10.01V58.11c-.1.9-.36 1.68-.78 2.33-.42.64-1.2 1.09-2.34 1.34zM62.2 71.78c-.55-.3-.96-.66-1.24-1.09-.28-.43-.49-.89-.64-1.39-.35-1.05-.69-2.11-1.01-3.19-.33-1.07-.64-2.14-.94-3.19-.55-1.7-1.06-3.39-1.54-5.06-.48-1.67-.99-3.34-1.54-4.99-.25-.85-.53-1.67-.82-2.47-.3-.8-.6-1.62-.9-2.47-.1-.35-.25-.68-.45-.98-.2-.3-.55-.5-1.05-.6-.1.1-.2.18-.3.23a.47.47 0 00-.22.22c-.1.25-.21.53-.34.82-.12.3-.19.58-.19.82.1 1.8.09 3.59-.04 5.36-.13 1.78-.06 3.56.19 5.36.05.15.07.4.07.75l.23 7.95c.1 2.1-.82 3.37-2.78 3.82-1.05-.05-1.87-.55-2.47-1.5-.6-.8-.9-1.72-.9-2.77 0-1.3-.01-2.56-.04-3.79-.03-1.22-.06-2.46-.11-3.71 0-.85-.03-1.69-.07-2.51-.05-.82-.08-1.66-.08-2.51-.05-1.2-.09-2.4-.11-3.6-.03-1.2-.04-2.4-.04-3.6 0-2.2.01-4.37.04-6.52.02-2.15.04-4.32.04-6.52v-2.74c0-.92-.03-1.84-.08-2.74-.05-1.35-.03-2.69.08-4.01.1-1.32.08-2.64-.08-3.94-.1-.9.19-1.67.86-2.32.68-.65 1.39-1.02 2.14-1.13 1.05-.1 1.85.23 2.4.98.5.8.82 1.55.97 2.25.8 3.05 1.71 6.04 2.74 8.96 1.02 2.92 2.09 5.86 3.19 8.81.25.6.44.99.56 1.16.12.18.51.46 1.16.86.4-.3.65-.64.75-1.01.1-.37.17-.76.22-1.16 0-.75.01-1.5.04-2.25.02-.75.04-1.5.04-2.25l-.14-12.51v-.64c0-.17.02-.39.07-.64.15-1.95 1.22-2.95 3.23-3 .15 0 .29.01.41.04s.26.04.41.04c1.3.65 1.95 1.8 1.95 3.45-.05 4.05-.08 8.1-.08 12.15v12.15c0 1.7.02 3.4.08 5.1l.15 5.1c0 .55.01 1.09.04 1.61.02.53.01 1.06-.04 1.61 0 1-.01 2-.04 3s.06 2 .26 3a7 7 0 01.08 1.72c-.05.6-.05 1.2 0 1.8 0 1.2-.35 2.17-1.05 2.92-.35.4-.71.64-1.09.71-.37.09-1.03.1-1.98.05zM88.67 44.59c-.1.41-.2.71-.3.91-.45 1.37-1.38 2.05-2.78 2.05-.7.05-1.38.06-2.02.04-.65-.02-1.33-.04-2.02-.04-.25 0-.53-.01-.82-.04-.3-.02-.6-.01-.9.04-1.15.1-1.85.7-2.1 1.8-.1.25-.18.49-.23.71-.05.22-.08.46-.08.71l-.15 8.03v2.25c0 .25-.01.5-.04.75s-.01.5.04.75c.15 1.7 1.05 2.58 2.7 2.62.85.1 1.72.14 2.62.11.9-.02 1.77-.04 2.62-.04.4 0 .77-.01 1.13-.04.35-.02.72-.01 1.12.04l.9.15c.3.05.57.13.82.23 1.35.45 2.02 1.37 2.02 2.77 0 1.35-.73 2.25-2.17 2.7-.4.1-.81.17-1.24.23-.43.05-.84.1-1.24.15-.7.05-1.36.08-1.99.08h-4.61c-.9 0-1.78.12-2.62.37-.3.1-.61.14-.94.11-.31-.01-.64-.03-.99-.03-1.75 0-2.85-.82-3.3-2.47-.35-1.2-.58-2.43-.68-3.68-.1-1.85-.16-3.69-.19-5.51-.03-1.82.09-3.66.34-5.51.05-.9.05-1.8 0-2.7-.2-2.1-.29-4.15-.26-6.15.02-2 .11-4.02.26-6.07.1-1.25.14-2.5.11-3.75-.03-1.25-.01-2.5.04-3.75 0-1.9.01-3.77.04-5.62.02-1.85.04-3.72.04-5.62.05-1.55.8-2.5 2.25-2.85.6-.15 1.2-.22 1.8-.22 1.75.1 3.52.06 5.32-.11 1.8-.17 3.57-.29 5.32-.34.6 0 1.2-.01 1.8-.04.6-.02 1.17-.01 1.72.04 1.55.1 2.45.92 2.7 2.47.1.6-.03 1.2-.37 1.8-.35.6-.82 1-1.43 1.2-.4.15-.8.25-1.2.3l-1.2.15c-1.3.1-2.59.18-3.86.22l-3.86.15c-.2 0-.37.01-.52.04-.15.03-.3.04-.45.04-1.15.25-1.8.85-1.95 1.79-.1.7-.19 1.4-.26 2.09-.08.7-.09 1.4-.04 2.09.1 1 .15 1.96.15 2.88s-.08 1.86-.23 2.8c-.1.55-.14 1.12-.11 1.72.02.6.09 1.2.19 1.79.1.95.35 1.58.75 1.91.4.32 1.07.51 2.03.56.75.05 1.5.06 2.25.04.75-.02 1.5-.01 2.25.04 1.15 0 1.96.19 2.44.57.47.35.93 1.13 1.38 2.29z"/></svg>